<?xml version="1.0" standalone="no"?>
<!DOCTYPE svg PUBLIC "-//W3C//DTD SVG 1.1//EN" "http://www.w3.org/Graphics/SVG/1.1/DTD/svg11.dtd" >
<svg xmlns="http://www.w3.org/2000/svg">
<metadata>
Created by FontPrep 20130207 at Mon Apr 21 12:51:46 2014
 By MacAir
Copyright (c) 1987, 1991, 1992, 1993 Adobe Systems Incorporated. All Rights Reserved.Futura is a registered trademark of Fundicion Tipografica Neufville S.A.
</metadata>
<defs>
<font id="82b033481d1e0d1865eb54e89b38140f" horiz-adv-x='1024' >
  <font-face 
    font-family="FuturaLT-CondensedLight"
    font-weight="300"
    font-stretch="normal"
    units-per-em="2048"
    panose-1="2 0 4 6 3 0 0 2 0 3"
    ascent="1638"
    descent="-410"
    x-height="1051"
    cap-height="1544"
    bbox="-256 -453 1812 1968"
    underline-thickness="102"
    underline-position="-153"
    unicode-range="U+0020-FB02"
  />
<missing-glyph horiz-adv-x="425" 
 />
    <glyph glyph-name=".notdef" horiz-adv-x="425" 
 />
    <glyph glyph-name=".null" horiz-adv-x="0" 
 />
    <glyph glyph-name="nonmarkingreturn" horiz-adv-x="681" 
 />
    <glyph glyph-name="space" unicode=" " horiz-adv-x="425" 
 />
    <glyph glyph-name="space" unicode="&#xa0;" horiz-adv-x="425" 
 />
    <glyph glyph-name="exclam" unicode="!" horiz-adv-x="702" 
d="M283 1544h137v-1157h-137v1157zM352 193q43 0 74 -31t31 -74t-31 -73.5t-74 -30.5t-73.5 30.5t-30.5 73.5t30.5 74t73.5 31z" />
    <glyph glyph-name="quotedbl" unicode="&#x22;" horiz-adv-x="632" 
d="M115 1544h153l-16 -463h-121zM367 1544h153l-16 -463h-121z" />
    <glyph glyph-name="numbersign" unicode="#" 
d="M203 510h-205l31 104h198l70 269h-203l31 104h197l133 537h98l-135 -537h143l133 537h97l-134 -537h197l-31 -104h-188l-70 -269h193l-31 -104h-186l-127 -510h-103l131 510h-143l-131 -510h-96zM467 614l70 269h-142l-71 -269h143z" />
    <glyph glyph-name="dollar" unicode="$" 
d="M172 233q123 -102 231 -102t177 78.5t69 191.5q0 167 -105.5 231t-165.5 98q-152 86 -234.5 181t-82.5 244t74 252.5t227 132.5v180h101v-176q135 -8 258 -92l-74 -109q-113 70 -218 70q-104 0 -166 -68.5t-62 -156.5t25.5 -139.5t66.5 -90t94 -69.5t148.5 -83.5
t174 -144.5t78.5 -249t-89 -271t-236 -137v-197h-101v193q-164 19 -278 133z" />
    <glyph glyph-name="percent" unicode="%" horiz-adv-x="1067" 
d="M827.5 770q69.5 0 107.5 -41t56.5 -101.5t21.5 -129t3 -124t-3 -124t-21.5 -129t-56.5 -101t-107.5 -40.5t-107.5 40.5t-56.5 101t-21.5 129t-3 124t3 124t21.5 129t56.5 101.5t107.5 41zM239.5 1565q69.5 0 107.5 -41t56.5 -101.5t21.5 -129t3 -124t-3 -124t-21.5 -129
t-56.5 -101.5t-107.5 -41t-107.5 41t-56.5 101.5t-21.5 129t-3 124t3 124t21.5 129t56.5 101.5t107.5 41zM239.5 1487q-36.5 0 -57 -32t-31 -80t-12.5 -103t-2 -102.5t2 -102.5t12.5 -103.5t31 -80t57 -31.5t57 31.5t31 80t12.5 103.5t2 102.5t-2 102.5t-12.5 103t-31 80
t-57 32zM827.5 692q-36.5 0 -57 -31.5t-31 -80t-12.5 -103.5t-2 -102t2 -102.5t12.5 -103.5t31 -80t57 -32t57 32t31 80t12.5 103.5t2 102.5t-2 102t-12.5 103.5t-31 80t-57 31.5zM236 0h-70l672 1544h65z" />
    <glyph glyph-name="ampersand" unicode="&#x26;" horiz-adv-x="1083" 
d="M778 84q-112 -104 -269 -104t-259.5 127t-102.5 299q0 238 228 436q-5 9 -41.5 78t-68.5 149.5t-32 155.5q0 138 87 228.5t213 90.5t205 -83t79 -249t-272 -393l266 -512l107 133l96 -94l-137 -158l96 -188h-150zM285 403q0 -112 64 -199.5t165 -94.5q113 4 207 92
l-283 518q-153 -163 -153 -316zM680 1255q0 63 -40 111.5t-110 48.5t-114.5 -51t-44.5 -148t108 -286q201 158 201 325z" />
    <glyph glyph-name="quotesingle" unicode="'" horiz-adv-x="458" 
d="M152 1544h153l-16 -463h-121z" />
    <glyph glyph-name="parenleft" unicode="(" horiz-adv-x="614" 
d="M313 692q-12 -423 238 -829l-102 -43q-262 425 -250 872q-12 441 250 873l102 -43q-250 -406 -238 -830z" />
    <glyph glyph-name="parenright" unicode=")" horiz-adv-x="614" 
d="M166 1565q262 -432 250 -873q12 -447 -250 -872l-103 43q250 406 238 829q12 422 -238 830z" />
    <glyph glyph-name="asterisk" unicode="*" horiz-adv-x="849" 
d="M383 1544h82v-309l295 96l26 -78l-294 -96l182 -250l-68 -49l-182 250l-180 -250l-68 49l182 250l-295 96l27 78l293 -96v309z" />
    <glyph glyph-name="plus" unicode="+" horiz-adv-x="909" 
d="M43 473v105h360v448h105v-448h360v-105h-360v-450h-105v450h-360z" />
    <glyph glyph-name="comma" unicode="," horiz-adv-x="425" 
d="M139 -330l-98 47l158 476l145 -66z" />
    <glyph glyph-name="hyphen" unicode="-" horiz-adv-x="319" 
d="M0 735h319v-162h-319v162z" />
    <glyph glyph-name="hyphen" unicode="&#xad;" horiz-adv-x="319" 
d="M0 735h319v-162h-319v162z" />
    <glyph glyph-name="period" unicode="." horiz-adv-x="425" 
d="M213 193q43 0 73.5 -31t30.5 -74t-30.5 -73.5t-73.5 -30.5t-73.5 30.5t-30.5 73.5t30.5 74t73.5 31z" />
    <glyph glyph-name="slash" unicode="/" horiz-adv-x="950" 
d="M88 -442h-125l903 2080h123z" />
    <glyph glyph-name="zero" unicode="0" 
d="M426 1565q84 0 142.5 -38t113 -128.5t72.5 -250t18 -325.5t-7 -303t-40 -258t-103.5 -201.5t-195.5 -80.5q-330 0 -338 358t-8 434t2 164t12 176t33 170t60.5 144.5t96 100.5t142.5 38zM426 1434q-74 0 -116 -64.5t-62.5 -162t-24.5 -214t-4 -221t4 -221.5t24.5 -214
t62.5 -161.5t116 -64.5t116 64.5t62.5 161.5t24.5 214t4 221.5t-4 221t-24.5 214t-62.5 162t-116 64.5z" />
    <glyph glyph-name="one" unicode="1" 
d="M518 0h-139v1409h-203l31 135h311v-1544z" />
    <glyph glyph-name="two" unicode="2" 
d="M111 1122q0 443 309 443q155 0 236 -99t81 -276q0 -178 -89 -358.5t-126 -251.5l-223 -453h420v-127h-633l307 631q103 206 154 332.5t51 263.5t-60.5 172t-113.5 35q-97 0 -135.5 -80.5t-38.5 -198.5v-33h-139z" />
    <glyph glyph-name="three" unicode="3" 
d="M543 854q196 -78 196 -434q0 -440 -313 -440q-328 0 -328 376l2 68h138v-45q0 -116 27.5 -168.5t62 -76t96.5 -23.5q176 0 176 302q0 197 -64 284t-223 83h-41v131h25q165 0 224 58.5t59 230.5q0 234 -164 234q-142 0 -151 -103.5t-9 -146.5h-139q-7 250 102 315.5
t190 65.5q155 0 232.5 -95.5t77.5 -257.5q0 -278 -176 -358z" />
    <glyph glyph-name="four" unicode="4" 
d="M635 539h115v-123h-115v-416h-139v416h-410v145l414 983h135v-1005zM496 539v469l20 309h-6l-289 -778h275z" />
    <glyph glyph-name="five" unicode="5" 
d="M598 465q0 229 -91 285.5t-155 56.5q-114 0 -215 -62l96 799h459v-127h-344l-57 -479l92 8q181 0 267.5 -145.5t86.5 -337.5q0 -316 -130 -399.5t-215 -83.5q-166 0 -279 88l39 141q119 -90 229.5 -90t163.5 107t53 239z" />
    <glyph glyph-name="six" unicode="6" 
d="M743 420q0 -300 -105.5 -370t-201.5 -70q-180 0 -255 128.5t-75 302.5q0 173 37 314t97 283l223 536h149l-303 -719l4 -4q73 56 155 56q148 0 211.5 -141.5t63.5 -315.5zM573.5 208.5q30.5 97.5 30.5 187.5q0 168 -37 262t-140 94t-142 -97t-39 -180.5t6 -139.5t40 -140
t142.5 -84t139 97.5z" />
    <glyph glyph-name="seven" unicode="7" 
d="M117 1417v127h635l-476 -1544h-151l436 1417h-444z" />
    <glyph glyph-name="eight" unicode="8" 
d="M575 854q175 -89 175 -408q0 -318 -116 -392t-210 -74q-172 0 -248 126.5t-76 303.5q0 368 195 444q-92 53 -126 141.5t-34 176.5q0 176 77.5 284.5t226.5 108.5t223.5 -105.5t74.5 -239.5q0 -133 -32 -220t-130 -146zM610 453q0 217 -60.5 277.5t-122.5 60.5
q-108 0 -147.5 -108t-39.5 -199q0 -171 38 -272t146 -101q186 0 186 342zM274 1196q0 -274 162 -274t162 181.5t-37 256t-127 74.5t-125 -70.5t-35 -167.5z" />
    <glyph glyph-name="nine" unicode="9" 
d="M377 670q-90 0 -145.5 55t-90.5 151.5t-35 232.5q0 240 84 348t222 108q182 0 256.5 -128t74.5 -302q0 -173 -37.5 -315t-95.5 -283l-223 -537h-149l301 719l-4 4q-68 -53 -158 -53zM604 1211q0 223 -148 223t-179 -95.5t-31 -232.5q0 -311 180 -311q101 0 139.5 96.5
t38.5 319.5z" />
    <glyph glyph-name="colon" unicode=":" horiz-adv-x="425" 
d="M213 1067q43 0 73.5 -30.5t30.5 -73.5t-30.5 -74t-73.5 -31t-73.5 31t-30.5 74t30.5 73.5t73.5 30.5zM213 193q43 0 73.5 -31t30.5 -74t-30.5 -73.5t-73.5 -30.5t-73.5 30.5t-30.5 73.5t30.5 74t73.5 31z" />
    <glyph glyph-name="semicolon" unicode=";" horiz-adv-x="425" 
d="M117 -330l-99 47l158 476l146 -66zM215 1067q43 0 73.5 -30.5t30.5 -73.5t-30.5 -74t-73.5 -31t-73.5 31t-30.5 74t30.5 73.5t73.5 30.5z" />
    <glyph glyph-name="less" unicode="&#x3c;" horiz-adv-x="909" 
d="M43 569l825 480v-115l-714 -399v-11l714 -411v-115l-825 481v90z" />
    <glyph glyph-name="equal" unicode="=" horiz-adv-x="909" 
d="M868 655h-825v105h825v-105zM868 291h-825v104h825v-104z" />
    <glyph glyph-name="greater" unicode="&#x3e;" horiz-adv-x="909" 
d="M868 477l-825 -479v115l715 399v10l-715 412v115l825 -482v-90z" />
    <glyph glyph-name="question" unicode="?" horiz-adv-x="892" 
d="M307 885h45q70 0 114 8t74.5 51.5t30.5 209.5t-21 226t-101 60q-113 0 -121.5 -98.5t-8.5 -133.5v-55h-133v55q0 176 53.5 266.5t208.5 90.5q154 0 207.5 -93.5t53.5 -250.5q0 -74 -10.5 -267.5t-258.5 -193.5v-373h-133v498zM274 88q0 43 31 74t74 31t73.5 -31t30.5 -74
t-30.5 -73.5t-73.5 -30.5t-74 30.5t-31 73.5z" />
    <glyph glyph-name="at" unicode="@" horiz-adv-x="1638" 
d="M932 412q-118 -109 -266.5 -109t-222.5 90t-74 211t35.5 232.5t103 202.5t164 149.5t194.5 58.5q201 0 264 -141l31 100h115l-217 -633q-29 -79 -27.5 -127.5t78.5 -48.5q76 0 143.5 52.5t119.5 131t85 171t33 194.5t-53.5 200.5t-190.5 204t-389 105.5
q-147 0 -276 -56.5t-225.5 -151.5t-151.5 -221t-55 -263q-6 -137 48 -260t152.5 -215t231 -146.5t248.5 -54.5q203 0 364 77.5t260 205.5h111q-98 -177 -291.5 -284t-394.5 -107t-355.5 62t-263 171t-167 255t-52.5 312q0 162 65.5 305.5t177 250t261 168t307.5 61.5
t291 -49.5t234.5 -136.5t161.5 -208.5t60 -240.5t-36.5 -223.5t-103 -194.5t-160 -149.5t-203.5 -59.5q-57 0 -108.5 25.5t-55.5 83.5zM868 1149q-70 0 -143.5 -53.5t-127.5 -131t-85 -166t-31 -182.5t60.5 -155.5t126.5 -61.5q108 0 180 52t100 118l111 322
q33 97 -18.5 177.5t-172.5 80.5z" />
    <glyph glyph-name="A" unicode="A" horiz-adv-x="747" 
d="M748 0h-154l-57 317h-328l-55 -317h-154l303 1544h135zM514 442l-102 592q-14 78 -21.5 158t-17.5 158h-8q-10 -78 -19.5 -158t-21.5 -158l-91 -592h281z" />
    <glyph glyph-name="B" unicode="B" horiz-adv-x="815" 
d="M324 1544q76 0 223 -19.5t147 -363.5q0 -134 -36.5 -220t-143.5 -142q183 -60 200 -186t17 -218q0 -209 -93 -302t-329 -93h-186v1544h201zM266 739v-616h39q162 0 220.5 62.5t58.5 228.5q0 269 -103.5 297t-171.5 28h-43zM266 1421v-559h39q43 0 87 2t99.5 42t55.5 229
q0 190 -40 230t-86 48t-116 8h-39z" />
    <glyph glyph-name="C" unicode="C" horiz-adv-x="751" 
d="M503 1425q-278 0 -278 -649q0 -373 75.5 -515t199.5 -142q89 0 190 69v-145q-89 -63 -188 -63q-98 0 -165 35.5t-130.5 119t-96 243.5t-32.5 281t2 208t25 246.5t115.5 305.5t287.5 146q116 0 182 -49v-158q-100 67 -187 67z" />
    <glyph glyph-name="D" unicode="D" horiz-adv-x="843" 
d="M123 1544h156q175 0 243 -30.5t156 -132t88 -548.5q0 -288 -21.5 -436.5t-75 -236.5t-146.5 -124t-234 -36h-166v1544zM266 131h41q104 0 166 37t103.5 140.5t41.5 463.5q0 199 -13 324t-49 195.5t-99.5 96t-165.5 25.5h-25v-1282z" />
    <glyph glyph-name="E" unicode="E" horiz-adv-x="692" 
d="M608 1413h-342v-545h332v-131h-332v-606h342v-131h-485v1544h485v-131z" />
    <glyph glyph-name="F" unicode="F" horiz-adv-x="702" 
d="M616 1413h-350v-545h332v-131h-332v-737h-143v1544h493v-131z" />
    <glyph glyph-name="G" unicode="G" horiz-adv-x="843" 
d="M225 846q0 -240 13.5 -376t41 -214t69.5 -107.5t100 -29.5q114 0 144 93.5t30 354.5v117h-209v131h352v-285q0 -92 -16.5 -321t-315.5 -229q-123 0 -193.5 61t-106.5 171t-46 262t-10 312q0 363 73.5 571t297.5 208q190 0 245.5 -114t69.5 -177l-141 -55
q-35 206 -168 206q-80 0 -126 -56t-75 -169.5t-29 -353.5z" />
    <glyph glyph-name="H" unicode="H" horiz-adv-x="886" 
d="M764 0h-143v797h-355v-797h-143v1544h143v-616h355v616h143v-1544z" />
    <glyph glyph-name="I" unicode="I" horiz-adv-x="389" 
d="M266 0h-143v1544h143v-1544z" />
    <glyph glyph-name="J" unicode="J" horiz-adv-x="536" 
d="M166 100q91 0 97.5 65.5t6.5 96.5v1282h144v-1255q0 -167 -27 -216.5t-72 -71t-127 -21.5t-163 38v150q73 -68 141 -68z" />
    <glyph glyph-name="K" unicode="K" horiz-adv-x="755" 
d="M266 778v-778h-143v1544h143v-700h4l308 700h159l-346 -735l348 -809h-161l-308 778h-4z" />
    <glyph glyph-name="L" unicode="L" horiz-adv-x="602" 
d="M266 131h336v-131h-479v1544h143v-1413z" />
    <glyph glyph-name="M" unicode="M" horiz-adv-x="1150" 
d="M1104 0h-141l-109 1139q-4 37 -5 72.5t-3 72.5h-8q-10 -78 -15.5 -152.5t-19.5 -152.5l-168 -979h-117l-170 1139q-7 43 -18 145h-6q-4 -76 -4 -153t-11 -150l-123 -981h-139l217 1544h123l174 -1151q6 -39 10 -76.5t9 -76.5h6q8 66 14 133t16 133l177 1038h122z" />
    <glyph glyph-name="N" unicode="N" horiz-adv-x="890" 
d="M641 516v1028h125v-1544h-125l-348 1038q-16 47 -27.5 98.5t-25.5 100.5h-9q4 -76 10.5 -149.5t6.5 -149.5v-938h-125v1544h125l354 -1073q28 -82 47 -160h6q-14 179 -14 205z" />
    <glyph glyph-name="O" unicode="O" horiz-adv-x="913" 
d="M761 1341q75 -224 75 -569q0 -467 -107.5 -629.5t-271.5 -162.5q-227 0 -303 220t-76 574q0 355 77.5 573t304.5 218q226 0 301 -224zM225 772q0 -102 5.5 -217t28 -212t68.5 -160.5t129 -63.5t130 63.5t69.5 160.5t27.5 212t5 310.5t-42 377.5t-189 182q-84 4 -130 -59
t-68.5 -161.5t-28 -214.5t-5.5 -218z" />
    <glyph glyph-name="P" unicode="P" horiz-adv-x="733" 
d="M123 0v1544h160q82 0 249.5 -20t167.5 -381q0 -224 -87.5 -314t-309.5 -90h-37v-739h-143zM266 870h56q141 0 184 56.5t45 176.5t-10.5 172t-53.5 95t-192 43h-29v-543z" />
    <glyph glyph-name="Q" unicode="Q" horiz-adv-x="913" 
d="M78 746q0 419 85 619t290 200q166 0 274.5 -165t108.5 -619t-105 -648l111 -174l-111 -74l-94 146q-62 -51 -163 -51t-169.5 34.5t-147.5 173.5t-79 558zM643 270q45 182 45 487q0 306 -27.5 424.5t-75 181t-117.5 62.5t-113.5 -29.5t-86.5 -140.5t-43 -483
q0 -540 88 -596.5t146 -56.5t96 31l-131 212l113 74z" />
    <glyph glyph-name="R" unicode="R" horiz-adv-x="780" 
d="M123 0v1544h153q80 0 251 -18t171 -375q0 -180 -61.5 -286.5t-228.5 -110.5l342 -754h-152l-328 756h-4v-756h-143zM266 872h51q145 0 189.5 56.5t44.5 182.5t-14.5 179t-45 81t-80 35t-116.5 7h-29v-541z" />
    <glyph glyph-name="S" unicode="S" horiz-adv-x="796" 
d="M659 1300q-111 125 -217 125q-114 0 -173.5 -72.5t-59.5 -158.5t22.5 -137t65.5 -99t134 -110t197.5 -144.5t106.5 -272.5t-106 -320.5t-281 -130.5q-143 0 -244 77v187q116 -125 239 -125t184 80.5t61 170.5q0 89 -22.5 139t-59.5 91t-84 74.5t-96 67.5
q-125 85 -195 174t-70 246t96.5 280t258.5 123q127 0 243 -82v-183z" />
    <glyph glyph-name="T" unicode="T" horiz-adv-x="636" 
d="M623 1413h-232v-1413h-143v1413h-232v131h607v-131z" />
    <glyph glyph-name="U" unicode="U" horiz-adv-x="880" 
d="M764 489q0 -106 -8 -199t-60 -201.5t-256 -108.5q-117 0 -181 40.5t-96 110.5t-39 162t-7 196v1055h143v-1046q0 -213 23.5 -272.5t59.5 -83t123.5 -23.5t121 84.5t33.5 294.5v1046h143v-1055z" />
    <glyph glyph-name="V" unicode="V" horiz-adv-x="796" 
d="M461 0h-127l-311 1544h147l203 -1124q5 -36 6 -47l7 -73q7 -62 11 -89h9q11 141 20 209l201 1124h145z" />
    <glyph glyph-name="W" unicode="W" horiz-adv-x="1239" 
d="M930 0h-131l-156 1040q-6 41 -10 115t-8 137h-9q-6 -63 -11 -138t-11 -114l-180 -1040h-131l-246 1544h147l138 -1032q8 -57 13 -114.5t11 -114.5h8q8 57 13.5 114.5t15.5 114.5l178 1032h123l147 -1032q8 -57 15.5 -114.5t15.5 -114.5h8q6 57 11.5 114.5t15.5 114.5
l160 1032h145z" />
    <glyph glyph-name="X" unicode="X" horiz-adv-x="823" 
d="M489 784l289 -784h-153l-209 657h-8q-10 -65 -70 -247l-137 -410h-154l293 784l-293 760h154l207 -653h8q19 115 80 287l129 366h153z" />
    <glyph glyph-name="Y" unicode="Y" horiz-adv-x="802" 
d="M481 0h-143v676l-299 868h154l153 -520q16 -51 29.5 -102.5t30.5 -104.5h8q10 53 19 107.5t26 107.5l151 512h154l-283 -868v-676z" />
    <glyph glyph-name="Z" unicode="Z" horiz-adv-x="686" 
d="M604 131v-131h-565l428 1413h-387v131h567l-432 -1413h389z" />
    <glyph glyph-name="bracketleft" unicode="[" horiz-adv-x="614" 
d="M262 1544h334v-86h-219v-1610h219v-86h-334v1782z" />
    <glyph glyph-name="backslash" unicode="\" horiz-adv-x="454" 
d="M-256 1638h123l903 -2080h-125z" />
    <glyph glyph-name="bracketright" unicode="]" horiz-adv-x="614" 
d="M352 -238h-334v86h220v1610h-220v86h334v-1782z" />
    <glyph glyph-name="asciicircum" unicode="^" horiz-adv-x="909" 
d="M496 1544l276 -839h-96l-223 686h-4l-218 -686h-96l277 839h84z" />
    <glyph glyph-name="underscore" unicode="_" horiz-adv-x="1024" 
d="M1024 -154v-102h-1024v102h1024z" />
    <glyph glyph-name="grave" unicode="`" horiz-adv-x="573" 
d="M426 1260l-66 -62l-266 240l109 98z" />
    <glyph glyph-name="a" unicode="a" horiz-adv-x="714" 
d="M325 1067q98 0 160 -88h4v72h134v-1051h-134v82h-4q-63 -98 -174 -98q-63 0 -110 21.5t-93.5 114t-46.5 376.5t31 377.5t83 143.5t150 50zM472.5 849.5q-29.5 108.5 -118.5 108.5q-141 0 -148 -172t-7 -288t12 -206.5t32.5 -134.5t48 -54.5t66.5 -10.5t69 23.5t52.5 100
t22.5 301.5q0 224 -29.5 332.5z" />
    <glyph glyph-name="b" unicode="b" horiz-adv-x="714" 
d="M391 -16q-98 0 -162 98h-4v-82h-133v1638h133v-659h4q57 88 156 88q100 0 151.5 -49t84 -144.5t32.5 -342.5q0 -246 -31.5 -347.5t-82 -150.5t-148.5 -49zM356 92q52 0 80.5 20.5t54 95.5t25.5 312t-22.5 307t-53 100.5t-86.5 30.5t-98.5 -70.5t-42.5 -109.5v-286
q0 -245 45.5 -322.5t97.5 -77.5z" />
    <glyph glyph-name="c" unicode="c" horiz-adv-x="569" 
d="M258.5 193.5q59.5 -84.5 113.5 -84.5t84.5 29.5t53.5 64.5h4v-166q-61 -53 -152 -53q-159 0 -230 168t-71 352q0 426 120 494.5t194 68.5t139 -41v-154q-65 70 -129 70t-125 -80t-61 -332t59.5 -336.5z" />
    <glyph glyph-name="d" unicode="d" horiz-adv-x="714" 
d="M330 1067q94 0 155 -88h4v659h134v-1638h-134v82h-4q-63 -98 -174 -98q-212 0 -231 222t-19 330t8.5 205t36 168.5t79 114.5t145.5 43zM199 621q0 -99 -1 -142t4.5 -133.5t36.5 -172t109 -81.5q98 0 126 105t28 322t-30 328t-118 111q-97 0 -126 -119t-29 -218z" />
    <glyph glyph-name="e" unicode="e" horiz-adv-x="702" 
d="M375 -16q-314 0 -314 538q0 406 115.5 475.5t193.5 69.5t174.5 -90.5t96.5 -415.5v-63h-442v-31q0 -219 54 -288.5t103 -69.5q140 0 140 247h137q0 -139 -62 -255.5t-196 -116.5zM237.5 832q-36.5 -110 -36.5 -222h305q-2 18 -6 91t-29 157t-111 84t-122.5 -110z" />
    <glyph glyph-name="f" unicode="f" horiz-adv-x="425" 
d="M309 1655q66 0 117 -23v-145q-23 16 -45.5 30.5t-50.5 14.5q-55 0 -69.5 -45t-14.5 -123v-313h174v-123h-174v-928h-133v928h-113v123h113v309q0 133 42 214t154 81z" />
    <glyph glyph-name="g" unicode="g" horiz-adv-x="724" 
d="M333 1067q100 0 163 -88h4v72h133v-1090q0 -74 -11 -226.5t-264 -152.5q-139 0 -204.5 78t-65.5 213v39h131v-18q-1 -187 139 -187t140 39v328q-66 -74 -167 -74t-155.5 59.5t-84.5 165t-30 314.5t34 312t86 159.5t152 56.5zM226.5 228q27.5 -119 138.5 -119
q53 0 82.5 35.5t47 108.5t17.5 219q0 145 -4 218.5t-20.5 133t-47 97t-76.5 37.5t-75 -16t-59.5 -92t-30.5 -289q0 -214 27.5 -333z" />
    <glyph glyph-name="h" unicode="h" horiz-adv-x="727" 
d="M432 1067q180 0 191.5 -130t11.5 -185v-752h-133v729q0 123 -22 176t-88 53t-98 -27.5t-50.5 -77.5t-18.5 -171v-682h-133v1638h133v-671q87 100 207 100z" />
    <glyph glyph-name="i" unicode="i" horiz-adv-x="317" 
d="M225 0h-133v1051h133v-1051zM258 1362q0 -41 -28.5 -70.5t-69.5 -29.5t-71 29.5t-30 70.5t30 69.5t71 28.5t69.5 -28.5t28.5 -69.5z" />
    <glyph glyph-name="j" unicode="j" horiz-adv-x="317" 
d="M225 -387h-133v1438h133v-1438zM258 1362q0 -41 -28.5 -70.5t-69.5 -29.5t-71 29.5t-30 70.5t30 69.5t71 28.5t69.5 -28.5t28.5 -69.5z" />
    <glyph glyph-name="k" unicode="k" horiz-adv-x="718" 
d="M225 625h4l256 426h152l-313 -471l395 -580h-166l-324 504h-4v-504h-133v1638h133v-1013z" />
    <glyph glyph-name="l" unicode="l" horiz-adv-x="317" 
d="M225 0h-133v1638h133v-1638z" />
    <glyph glyph-name="m" unicode="m" horiz-adv-x="1144" 
d="M229 963q77 104 203 104q62 0 113 -33t78 -92q87 125 217 125q184 0 198.5 -127t14.5 -184v-756h-133v752q0 95 -23 150.5t-89 55.5q-112 0 -140.5 -84.5t-28.5 -226.5v-647h-133v750q0 149 -37 178.5t-88 29.5q-95 0 -125.5 -92.5t-30.5 -240.5v-625h-133v1051h133v-88
h4z" />
    <glyph glyph-name="n" unicode="n" horiz-adv-x="727" 
d="M432 1067q180 0 191.5 -131t11.5 -184v-752h-133v737q0 113 -22.5 167t-88.5 54q-109 0 -137.5 -77.5t-28.5 -198.5v-682h-133v1051h133v-84q87 100 207 100z" />
    <glyph glyph-name="o" unicode="o" horiz-adv-x="727" 
d="M362.5 1067q104.5 0 164 -57.5t90 -140.5t39 -176t8.5 -166.5t-8.5 -168t-39 -177.5t-90 -140t-164 -57t-164 57t-90 140t-39 177.5t-8.5 168t8.5 166.5t39 176t90 140.5t164 57.5zM362.5 110q163.5 0 163.5 416t-163.5 416t-163.5 -416t163.5 -416z" />
    <glyph glyph-name="p" unicode="p" horiz-adv-x="714" 
d="M394 -16q-102 0 -165 98h-4v-483h-133v1452h133v-72h4q63 88 160 88q96 0 147.5 -53t84 -150t32.5 -337t-28.5 -338.5t-78.5 -151.5t-152 -53zM362 92q50 0 79.5 23.5t52 96.5t22.5 289t-17.5 293.5t-49 120.5t-87.5 43t-85 -36.5t-46.5 -107t-17.5 -203.5q0 -132 3 -214
t18.5 -149.5t46.5 -111.5t81 -44z" />
    <glyph glyph-name="q" unicode="q" horiz-adv-x="714" 
d="M327 1067q96 0 158 -88h4v72h134v-1452h-134v483h-4q-63 -98 -164 -98q-100 0 -150 53t-74.5 135t-30 179.5t-5.5 185.5t7.5 182t33 171t77.5 127t148 50zM347 92q96 0 125.5 106.5t29.5 269.5q0 271 -31.5 380.5t-116.5 109.5q-126 0 -140.5 -157.5t-14.5 -250.5t4 -176
t27 -182.5t117 -99.5z" />
    <glyph glyph-name="r" unicode="r" horiz-adv-x="419" 
d="M225 911h4q39 107 90.5 131.5t83.5 24.5v-156l-26 2q-134 0 -143 -118.5t-9 -182.5v-612h-133v1051h133v-140z" />
    <glyph glyph-name="s" unicode="s" horiz-adv-x="569" 
d="M297 1067q107 0 197 -68v-163h-5q-75 106 -174 106q-59 0 -95 -40t-36 -88t14.5 -80t39 -59.5t55.5 -52t63 -51.5q87 -75 127.5 -134.5t40.5 -137.5q0 -140 -78 -227.5t-192 -87.5t-207 71v156q39 -41 83 -71.5t108 -30.5t106.5 47t42.5 99q0 84 -40 134t-100 103
q-107 94 -153.5 158t-46.5 166t71.5 176.5t178.5 74.5z" />
    <glyph glyph-name="t" unicode="t" horiz-adv-x="430" 
d="M455 928h-174v-928h-134v928h-112v123h112v286h134v-286h174v-123z" />
    <glyph glyph-name="u" unicode="u" horiz-adv-x="716" 
d="M217 1051v-660q0 -138 17.5 -186.5t45 -72t77.5 -23.5q92 0 117.5 75.5t25.5 206.5v660h133v-772q0 -133 -66.5 -214t-208 -81t-208 79.5t-66.5 215.5v772h133z" />
    <glyph glyph-name="v" unicode="v" horiz-adv-x="647" 
d="M399 0h-143l-240 1051h136l135 -658q10 -49 19 -98t20 -98h8q6 49 12 99t16 97l134 658h137z" />
    <glyph glyph-name="w" unicode="w" horiz-adv-x="1032" 
d="M778 0h-137l-121 762q-4 29 -5 56.5t-5 55.5h-6q-4 -47 -8 -95t-13 -95l-112 -684h-135l-213 1051h135l100 -621q10 -59 21.5 -118.5t21.5 -118.5h8q8 59 14.5 118.5t16.5 118.5l102 621h136l110 -727q5 -42 19 -131h6q8 51 14 102t16 102l131 654h136z" />
    <glyph glyph-name="x" unicode="x" horiz-adv-x="686" 
d="M420 537l235 -537h-147l-109 276q-46 123 -55 177h-8q-8 -64 -51 -179l-105 -274h-149l241 537l-217 514h148l86 -234q48 -141 61 -213h8q14 55 26.5 110.5t35.5 108.5l88 228h147z" />
    <glyph glyph-name="y" unicode="y" horiz-adv-x="679" 
d="M301 -401h-139l104 430l-250 1022h136l176 -848h6q14 68 26.5 135.5t28.5 134.5l135 578h140z" />
    <glyph glyph-name="z" unicode="z" horiz-adv-x="677" 
d="M578 0h-547l415 928h-358v123h559l-426 -928h357v-123z" />
    <glyph glyph-name="braceleft" unicode="{" horiz-adv-x="614" 
d="M522 -162q-145 0 -200.5 68t-55.5 229v303q0 51 -6 94t-53 78q-32 28 -109 47v68q75 18 109 47q47 35 53 78t6 94v303q0 163 56 230t200 67h45v-67q-113 -8 -149.5 -57.5t-36.5 -162.5v-288q0 -110 -22.5 -157.5t-55.5 -73t-84 -44.5v-6q100 -35 131 -99.5t31 -174.5
v-289q0 -112 26.5 -148t63.5 -51.5t96 -19.5v-68h-45z" />
    <glyph glyph-name="bar" unicode="|" horiz-adv-x="454" 
d="M279 1610v-2048h-105v2048h105z" />
    <glyph glyph-name="braceright" unicode="}" horiz-adv-x="614" 
d="M352 135q0 -164 -56 -230.5t-200 -66.5h-45v68q113 8 150 58t37 161v289q0 110 22.5 157t54 73t84.5 44v6q-99 34 -130 99.5t-31 175.5v288q0 112 -27 148.5t-63.5 52t-96.5 19.5v67h45q143 0 199.5 -66.5t56.5 -230.5v-303q0 -51 6.5 -94t53.5 -78q31 -27 104 -47v-68
q-76 -21 -104 -47q-47 -35 -53.5 -78t-6.5 -94v-303zM51 -166h-4l4 4v-4z" />
    <glyph glyph-name="asciitilde" unicode="~" horiz-adv-x="909" 
d="M276 631q68 -1 155 -37t131 -53t75 -17q83 0 164 125l67 -69q-96 -166 -231 -166q-58 0 -221 65q-33 12 -68 25.5t-70 13.5q-60 0 -94.5 -36t-72.5 -99l-68 72q102 176 233 176z" />
    <glyph glyph-name="exclamdown" unicode="&#xa1;" horiz-adv-x="702" 
d="M420 -395h-137v1157h137v-1157zM455 1061q0 -43 -31 -74t-74 -31t-73.5 31t-30.5 74t30.5 73.5t73.5 30.5t74 -30.5t31 -73.5z" />
    <glyph glyph-name="cent" unicode="&#xa2;" 
d="M500 1212q-111 0 -149 -135t-38 -284q0 -244 59.5 -329t113.5 -85t84 29.5t53 64.5h4v-166q-45 -35 -103 -47v-203h-100v203q-141 44 -195.5 188.5t-54.5 333.5t35 295.5t84 169t131 82.5v184h100v-180q65 -9 103 -37v-153q-64 69 -127 69z" />
    <glyph glyph-name="sterling" unicode="&#xa3;" 
d="M258 717q-158 257 -158 427q0 197 96.5 309t246.5 112t238.5 -101.5t92.5 -246.5l-139 -27q0 99 -48 171.5t-146 72.5t-149.5 -74.5t-51.5 -161.5q0 -137 44 -233.5t130 -247.5h241v-96h-192q41 -93 41 -163t-22.5 -143t-63.5 -122q18 -10 39.5 -28t60.5 -47.5t81 -28.5
q67 2 79 122l121 -37q-14 -147 -86 -182t-122 -35t-93 25.5t-77 47.5t-69.5 46t-69.5 24t-58.5 -31.5t-35.5 -66.5l-118 72q29 61 80 112.5t122 51.5q12 0 33 -5q60 93 60 200q0 106 -58 188h-215v96h166z" />
    <glyph glyph-name="currency" unicode="&#xa4;" 
d="M-35 569q0 149 88 273l-80 80l97 96l82 -78q117 90 268 90t285 -90l79 78l97 -96l-80 -80q88 -127 88 -275q0 -147 -88 -276l80 -78l-97 -98l-79 80q-127 -93 -276 -93t-277 93l-82 -80l-97 98l80 78q-88 129 -88 278zM187.5 811q-101.5 -98 -101.5 -242
q0 -143 99.5 -242.5t238.5 -103.5q141 4 240.5 102t103.5 244q-4 138 -101 239t-237 101q-141 0 -242.5 -98z" />
    <glyph glyph-name="yen" unicode="&#xa5;" 
d="M813 958v-88h-252l-49 -157h301v-88h-309v-625h-139v625h-328v88h315l-51 157h-264v88h233l-202 586h149l213 -727h4l58 254l141 473h149l-190 -586h221z" />
    <glyph glyph-name="brokenbar" unicode="&#xa6;" horiz-adv-x="454" 
d="M279 1354v-512h-105v512h105zM279 330v-512h-105v512h105z" />
    <glyph glyph-name="section" unicode="&#xa7;" horiz-adv-x="849" 
d="M215.5 -331.5q-78.5 84.5 -82.5 206.5h133q4 -74 42 -122t117 -48t123 55.5t44 119.5q0 112 -57 169t-150 100q-168 77 -229.5 175t-61.5 243q0 228 94.5 296.5t165.5 80.5v4l-43 23q-170 89 -170 284q0 131 81 220.5t207 89.5t207 -77t85 -192h-133q-8 63 -48 105.5
t-116 42.5t-118 -58t-42 -120q0 -102 56.5 -159t146.5 -101q156 -84 223.5 -181.5t67.5 -246.5q0 -223 -75 -296t-128 -92v-4q72 -41 116 -109.5t44 -159.5t-21.5 -146.5t-84 -121t-189 -65.5t-205 84.5zM625 541q0 252 -150 319l-43 14q-205 -12 -205 -303q0 -209 170 -288
l58 -27q170 33 170 285z" />
    <glyph glyph-name="dieresis" unicode="&#xa8;" horiz-adv-x="573" 
d="M49 1358q0 39 27.5 66.5t66.5 27.5t67 -27.5t28 -66.5t-28 -66.5t-67 -27.5t-66.5 27.5t-27.5 66.5zM336 1358q0 39 27.5 66.5t66.5 27.5t66.5 -27.5t27.5 -66.5t-27.5 -66.5t-66.5 -27.5t-66.5 27.5t-27.5 66.5z" />
    <glyph glyph-name="copyright" unicode="&#xa9;" horiz-adv-x="1638" 
d="M821.5 -20q-153.5 0 -290 62t-237.5 169.5t-160.5 252t-59.5 308.5t59.5 308.5t160.5 252t237.5 170t290 62.5t289.5 -62.5t237.5 -170t160 -252t58.5 -308.5t-58.5 -308.5t-160 -252t-237.5 -169.5t-289.5 -62zM821 88q135 0 252 53.5t251 198.5t134 434q0 139 -49 263
t-134 217.5t-202 147.5t-252 54t-251.5 -54t-202.5 -147.5t-135.5 -217.5t-49.5 -266t49.5 -267t135.5 -217t202.5 -145.5t251.5 -53.5zM524 488.5q-84 95.5 -84 291.5t111 325.5t299 129.5q133 0 230.5 -79t119.5 -220h-121q-16 92 -79.5 141t-141.5 49q-143 0 -220 -98
t-77 -242t81 -250t212 -106q82 0 147.5 54.5t77.5 144.5h121q-15 -139 -115 -223t-245 -84q-78 0 -155 35.5t-161 131z" />
    <glyph glyph-name="ordfeminine" unicode="&#xaa;" horiz-adv-x="614" 
d="M489 872h-98v41h-4q-35 -51 -98 -51t-96 31t-55.5 95.5t-22.5 173.5q0 110 4 171.5t33 146.5t137 85q63 0 102 -45v34h98v-682zM399 1224v84q0 83 -26.5 129t-61.5 46t-53 -24.5t-29.5 -69.5t-11.5 -172q0 -128 16.5 -200.5t71.5 -72.5q99 0 96.5 128t-2.5 152z" />
    <glyph glyph-name="guillemotleft" unicode="&#xab;" horiz-adv-x="770" 
d="M473 659l219 -397l-90 -51l-250 448l250 437l90 -49zM213 659l219 -397l-88 -51l-252 448l252 437l88 -49z" />
    <glyph glyph-name="logicalnot" unicode="&#xac;" horiz-adv-x="909" 
d="M868 760v-547h-104v442h-721v105h825z" />
    <glyph glyph-name="registered" unicode="&#xae;" horiz-adv-x="1638" 
d="M821.5 -20q-153.5 0 -290 62t-237.5 169.5t-160.5 252t-59.5 308.5t59.5 308.5t160.5 252t237.5 170t290 62.5t289.5 -62.5t237.5 -170t160 -252t58.5 -308.5t-58.5 -308.5t-160 -252t-237.5 -169.5t-289.5 -62zM821 88q135 0 252 53.5t251 198.5t134 434q0 139 -49 263
t-134 217.5t-202 147.5t-252 54t-251.5 -54t-202.5 -147.5t-135.5 -217.5t-49.5 -266t49.5 -267t135.5 -217t202.5 -145.5t251.5 -53.5zM627 731v-401h-117v887h381q140 0 213 -46q98 -57 98 -195q0 -117 -74.5 -179t-201.5 -66l264 -401h-137l-250 401h-176zM780 823
q171 0 220 22.5t65 53.5t16 81q0 86 -59 115t-156 29h-239v-301h153z" />
    <glyph glyph-name="macron" unicode="&#xaf;" horiz-adv-x="573" 
d="M27 1409h522v-109h-522v109z" />
    <glyph glyph-name="macron" unicode="&#x2c9;" horiz-adv-x="573" 
d="M27 1409h522v-109h-522v109z" />
    <glyph glyph-name="degree" unicode="&#xb0;" horiz-adv-x="819" 
d="M409.5 1565q63.5 0 119 -24.5t97.5 -66.5t66.5 -97.5t24.5 -119t-24.5 -119t-66.5 -97.5t-97.5 -66.5t-119 -24.5t-118.5 24.5t-97 66.5t-67 97.5t-25 119t25 119t67 97.5t97 66.5t118.5 24.5zM251 1416q-67 -67 -67 -160t66.5 -158.5t158.5 -65.5q93 0 159.5 66.5
t66.5 157.5t-67 159t-159 68q-91 0 -158 -67z" />
    <glyph glyph-name="plusminus" unicode="&#xb1;" horiz-adv-x="909" 
d="M43 575v105h360v346h105v-346h360v-105h-360v-348h-105v348h-360zM868 23h-825v104h825v-104z" />
    <glyph glyph-name="twosuperior" unicode="&#xb2;" horiz-adv-x="512" 
d="M61 1300q0 265 201 265q106 0 156.5 -60.5t50.5 -167.5t-55.5 -213t-75.5 -149l-143 -260h262v-88h-412l201 379q89 174 106 241.5t17 113.5t-22.5 83t-78.5 37q-106 0 -106 -162v-19h-101z" />
    <glyph glyph-name="threesuperior" unicode="&#xb3;" horiz-adv-x="512" 
d="M463 879q0 -114 -31 -165.5t-70 -75.5t-102 -24q-213 0 -213 226v41h100v-27q0 -156 111 -156q62 0 83 55t21 143q0 89 -36.5 143.5t-139.5 52.5h-26v86h16q98 0 136 32.5t38 137.5q0 133 -96 133q-80 0 -87 -58.5t-7 -85.5h-101q-4 90 44.5 159t150.5 69
q103 0 150 -59.5t47 -138.5t-22.5 -139.5t-92.5 -88.5q127 -41 127 -260z" />
    <glyph glyph-name="acute" unicode="&#xb4;" horiz-adv-x="573" 
d="M371 1536l108 -98l-266 -240l-66 62z" />
    <glyph glyph-name="mu" unicode="&#xb5;" horiz-adv-x="716" 
d="M428 -16q-120 0 -207 100v-485h-133v1452h133v-682q0 -124 29 -200.5t129 -76.5q73 0 96 47t23 183v729h133v-752q0 -145 -24.5 -201.5t-65.5 -85t-113 -28.5z" />
    <glyph glyph-name="mu" unicode="&#x3bc;" horiz-adv-x="716" 
d="M428 -16q-120 0 -207 100v-485h-133v1452h133v-682q0 -124 29 -200.5t129 -76.5q73 0 96 47t23 183v729h133v-752q0 -145 -24.5 -201.5t-65.5 -85t-113 -28.5z" />
    <glyph glyph-name="paragraph" unicode="&#xb6;" horiz-adv-x="849" 
d="M444 848h-24q-225 0 -317.5 103.5t-92.5 257.5t94 244.5t324 90.5h369v-1939h-95v1853h-163v-1853h-95v1243z" />
    <glyph glyph-name="periodcentered" unicode="&#xb7;" horiz-adv-x="425" 
d="M213 621q45 0 74.5 -31t29.5 -74t-29.5 -73.5t-74.5 -30.5t-74.5 30.5t-29.5 73.5t29.5 74t74.5 31z" />
    <glyph glyph-name="periodcentered" unicode="&#x2219;" horiz-adv-x="425" 
d="M213 621q45 0 74.5 -31t29.5 -74t-29.5 -73.5t-74.5 -30.5t-74.5 30.5t-29.5 73.5t29.5 74t74.5 31z" />
    <glyph glyph-name="cedilla" unicode="&#xb8;" horiz-adv-x="573" 
d="M201 -453l-84 47l170 322l108 -59z" />
    <glyph glyph-name="onesuperior" unicode="&#xb9;" horiz-adv-x="512" 
d="M317 627h-100v841h-129l21 84h208v-925z" />
    <glyph glyph-name="ordmasculine" unicode="&#xba;" horiz-adv-x="614" 
d="M313 1565q197 0 197 -292t-64.5 -351.5t-158 -59.5t-137.5 106t-44 246q0 228 70 289.5t137 61.5zM311 1473q-102 1 -102 -259t102 -260q97 0 97 260q0 154 -31 206.5t-66 52.5z" />
    <glyph glyph-name="guillemotright" unicode="&#xbb;" horiz-adv-x="770" 
d="M166 1096l252 -437l-252 -448l-88 51l219 397l-219 388zM428 1096l250 -437l-250 -448l-90 51l221 397l-221 388z" />
    <glyph glyph-name="onequarter" unicode="&#xbc;" horiz-adv-x="1273" 
d="M1118 328h76v-80h-76v-248h-100v248h-275v88l265 590h110v-598zM326 0h-86l669 1544h84zM301 627h-100v841h-129l20 84h209v-925zM1018 604q0 19 14 187h-4l-188 -463h178v276z" />
    <glyph glyph-name="onehalf" unicode="&#xbd;" horiz-adv-x="1273" 
d="M1006 854q-107 0 -107 -162v-18h-100q0 116 42 190t153 74t161.5 -60.5t50.5 -150.5t-31.5 -167t-55 -123t-44.5 -89l-143 -260h262v-88h-412l201 379q89 174 106 241.5t17 113.5t-22.5 83t-77.5 37zM305 0h-86l670 1544h84zM317 627h-100v841h-129l21 84h208v-925z" />
    <glyph glyph-name="threequarters" unicode="&#xbe;" horiz-adv-x="1273" 
d="M1018 0v248h-275v88l265 590h110v-598h76v-80h-76v-248h-100zM504 879q0 -114 -31 -165.5t-70 -75.5t-102 -24q-213 0 -213 226v41h100v-27q0 -156 111 -156q62 0 83 55t21 143q0 89 -36.5 143.5t-139.5 52.5h-26v86h16q98 0 136 32.5t38 137.5q0 133 -96 133
q-80 0 -87 -58.5t-7 -85.5h-101q-4 90 44.5 159t150.5 69q103 0 150 -59.5t47 -151.5q0 -168 -115 -215q127 -41 127 -260zM408 0h-86l669 1544h84zM1018 328v276q4 39 7 89t7 98h-4l-188 -463h178z" />
    <glyph glyph-name="questiondown" unicode="&#xbf;" horiz-adv-x="892" 
d="M590 264h-45q-72 0 -115 -8t-73.5 -51.5t-30.5 -209.5t14 -205.5t38.5 -60t88.5 -20.5t87.5 68.5t23.5 163.5v55h133v-55q0 -176 -53.5 -266.5t-208.5 -90.5q-154 0 -207.5 93.5t-53.5 250.5q0 74 4.5 155t47 193.5t217.5 112.5v373h133v-498zM618 1061q0 -43 -30.5 -74
t-73.5 -31t-73.5 31t-30.5 74t30.5 73.5t73.5 30.5t73.5 -30.5t30.5 -73.5z" />
    <glyph glyph-name="Agrave" unicode="&#xc0;" horiz-adv-x="747" 
d="M748 0h-154l-57 317h-328l-55 -317h-154l303 1544h135zM514 442l-102 592q-14 78 -21.5 158t-17.5 158h-8q-10 -78 -19.5 -158t-21.5 -158l-91 -592h281zM514 1692l-65 -62l-267 240l109 98z" />
    <glyph glyph-name="Aacute" unicode="&#xc1;" horiz-adv-x="747" 
d="M748 0h-154l-57 317h-328l-55 -317h-154l303 1544h135zM514 442l-102 592q-14 78 -21.5 158t-17.5 158h-8q-10 -78 -19.5 -158t-21.5 -158l-91 -592h281zM459 1968l108 -98l-266 -240l-65 62z" />
    <glyph glyph-name="Acircumflex" unicode="&#xc2;" horiz-adv-x="747" 
d="M748 0h-154l-57 317h-328l-55 -317h-154l303 1544h135zM514 442l-102 592q-14 78 -21.5 158t-17.5 158h-8q-10 -78 -19.5 -158t-21.5 -158l-91 -592h281zM631 1704l-76 -74l-184 176l-183 -176l-69 74l252 250z" />
    <glyph glyph-name="Atilde" unicode="&#xc3;" horiz-adv-x="747" 
d="M748 0h-154l-57 317h-328l-55 -317h-154l303 1544h135zM514 442l-102 592q-14 78 -21.5 158t-17.5 158h-8q-10 -78 -19.5 -158t-21.5 -158l-91 -592h281zM381 1835q71 -37 94 -37t36 20.5t11 43.5h121q-5 -61 -47.5 -113.5t-110.5 -52.5q-43 0 -114 39t-99 39
q-45 0 -45 -68h-118q4 66 50 116t98 50q53 0 124 -37z" />
    <glyph glyph-name="Adieresis" unicode="&#xc4;" horiz-adv-x="747" 
d="M748 0h-154l-57 317h-328l-55 -317h-154l303 1544h135zM514 442l-102 592q-14 78 -21.5 158t-17.5 158h-8q-10 -78 -19.5 -158t-21.5 -158l-91 -592h281zM137 1790q0 39 28 66.5t66.5 27.5t66.5 -27.5t28 -66.5t-28 -66.5t-66.5 -27.5t-66.5 27.5t-28 66.5zM424 1790
q0 39 27.5 66.5t66.5 27.5t66.5 -27.5t27.5 -66.5t-27.5 -66.5t-66.5 -27.5t-66.5 27.5t-27.5 66.5z" />
    <glyph glyph-name="Aring" unicode="&#xc5;" horiz-adv-x="747" 
d="M748 0h-154l-57 317h-328l-55 -317h-154l303 1544h135zM514 442l-102 592q-14 78 -21.5 158t-17.5 158h-8q-10 -78 -19.5 -158t-21.5 -158l-91 -592h281zM377 1948q78 0 131 -53.5t53 -131t-53 -132t-131 -54.5t-132.5 54.5t-54.5 132t54.5 131t132.5 53.5zM377 1855
q-39 0 -66.5 -26.5t-27.5 -65.5t27.5 -66.5t66.5 -27.5t65.5 27.5t26.5 66.5t-26.5 65.5t-65.5 26.5z" />
    <glyph glyph-name="AE" unicode="&#xc6;" horiz-adv-x="1087" 
d="M842 1413h-342l102 -545h320l24 -131h-319l114 -606h326l20 -131h-477l-53 317h-350l-53 -317h-154l311 1544h508zM537 442l-115 684q-10 63 -15.5 127t-11.5 127h-6q-10 -63 -22.5 -126.5t-22.5 -127.5l-113 -684h306z" />
    <glyph glyph-name="Ccedilla" unicode="&#xc7;" horiz-adv-x="751" 
d="M503 1425q-278 0 -278 -649q0 -373 75.5 -515t199.5 -142q89 0 190 69v-145q-89 -63 -188 -63q-98 0 -165 35.5t-130.5 119t-96 243.5t-32.5 281t2 208t25 246.5t115.5 305.5t287.5 146q116 0 182 -49v-158q-100 67 -187 67zM332 -453l-84 47l170 322l108 -59z" />
    <glyph glyph-name="Egrave" unicode="&#xc8;" horiz-adv-x="692" 
d="M608 1413h-342v-545h332v-131h-332v-606h342v-131h-485v1544h485v-131zM485 1692l-65 -62l-266 240l108 98z" />
    <glyph glyph-name="Eacute" unicode="&#xc9;" horiz-adv-x="692" 
d="M608 1413h-342v-545h332v-131h-332v-606h342v-131h-485v1544h485v-131zM492 1968l108 -98l-266 -240l-66 62z" />
    <glyph glyph-name="Ecircumflex" unicode="&#xca;" horiz-adv-x="692" 
d="M608 1413h-342v-545h332v-131h-332v-606h342v-131h-485v1544h485v-131zM602 1704l-76 -74l-184 176l-182 -176l-70 74l252 250z" />
    <glyph glyph-name="Edieresis" unicode="&#xcb;" horiz-adv-x="692" 
d="M608 1413h-342v-545h332v-131h-332v-606h342v-131h-485v1544h485v-131zM408 1790q0 39 27.5 66.5t66.5 27.5t66.5 -27.5t27.5 -66.5t-27.5 -66.5t-66.5 -27.5t-66.5 27.5t-27.5 66.5zM121 1790q0 39 27.5 66.5t66.5 27.5t66.5 -27.5t27.5 -66.5t-27.5 -66.5t-66.5 -27.5
t-66.5 27.5t-27.5 66.5z" />
    <glyph glyph-name="Igrave" unicode="&#xcc;" horiz-adv-x="389" 
d="M266 0h-143v1544h143v-1544zM334 1692l-66 -62l-266 240l109 98z" />
    <glyph glyph-name="Iacute" unicode="&#xcd;" horiz-adv-x="389" 
d="M266 0h-143v1544h143v-1544zM279 1968l108 -98l-266 -240l-66 62z" />
    <glyph glyph-name="Icircumflex" unicode="&#xce;" horiz-adv-x="389" 
d="M266 0h-143v1544h143v-1544zM451 1704l-76 -74l-185 176l-182 -176l-69 74l251 250z" />
    <glyph glyph-name="Idieresis" unicode="&#xcf;" horiz-adv-x="389" 
d="M266 0h-143v1544h143v-1544zM244 1790q0 39 27.5 66.5t66.5 27.5t66.5 -27.5t27.5 -66.5t-27.5 -66.5t-66.5 -27.5t-66.5 27.5t-27.5 66.5zM-43 1790q0 39 27.5 66.5t66.5 27.5t66.5 -27.5t27.5 -66.5t-27.5 -66.5t-66.5 -27.5t-66.5 27.5t-27.5 66.5z" />
    <glyph glyph-name="Eth" unicode="&#xd0;" horiz-adv-x="843" 
d="M-25 737v131h148v676h156q174 0 242.5 -29.5t156.5 -127.5t88 -543q0 -289 -21.5 -440.5t-75 -241.5t-146.5 -126t-234 -36h-166v737h-148zM406 868v-131h-140v-606h41q127 0 190.5 58.5t90 147.5t27.5 195t2 260t-12 287t-49 207t-99.5 100.5t-165.5 26.5h-25v-545h140z
" />
    <glyph glyph-name="Ntilde" unicode="&#xd1;" horiz-adv-x="890" 
d="M641 516v1028h125v-1544h-125l-348 1038q-16 47 -27.5 98.5t-25.5 100.5h-9q4 -76 10.5 -149.5t6.5 -149.5v-938h-125v1544h125l354 -1073q28 -82 47 -160h6q-14 179 -14 205zM452.5 1835q70.5 -37 93.5 -37q24 0 37 20.5t11 43.5h121q-5 -59 -48 -112.5t-110 -53.5
q-42 0 -93 28t-74 39t-49 11q-42 0 -42 -68h-119q4 65 50.5 115.5t98.5 50.5q53 0 123.5 -37z" />
    <glyph glyph-name="Ograve" unicode="&#xd2;" horiz-adv-x="913" 
d="M761 1341q75 -224 75 -569q0 -467 -107.5 -629.5t-271.5 -162.5q-227 0 -303 220t-76 574q0 355 77.5 573t304.5 218q226 0 301 -224zM225 772q0 -102 5.5 -217t28 -212t68.5 -160.5t129 -63.5t130 63.5t69.5 160.5t27.5 212t5 310.5t-42 377.5t-189 182q-84 4 -130 -59
t-68.5 -161.5t-28 -214.5t-5.5 -218zM565 1692l-65 -62l-267 240l109 98z" />
    <glyph glyph-name="Oacute" unicode="&#xd3;" horiz-adv-x="913" 
d="M761 1341q75 -224 75 -569q0 -467 -107.5 -629.5t-271.5 -162.5q-227 0 -303 220t-76 574q0 355 77.5 573t304.5 218q226 0 301 -224zM225 772q0 -102 5.5 -217t28 -212t68.5 -160.5t129 -63.5t130 63.5t69.5 160.5t27.5 212t5 310.5t-42 377.5t-189 182q-84 4 -130 -59
t-68.5 -161.5t-28 -214.5t-5.5 -218zM571 1968l109 -98l-266 -240l-66 62z" />
    <glyph glyph-name="Ocircumflex" unicode="&#xd4;" horiz-adv-x="913" 
d="M761 1341q75 -224 75 -569q0 -467 -107.5 -629.5t-271.5 -162.5q-227 0 -303 220t-76 574q0 355 77.5 573t304.5 218q226 0 301 -224zM225 772q0 -102 5.5 -217t28 -212t68.5 -160.5t129 -63.5t130 63.5t69.5 160.5t27.5 212t5 310.5t-42 377.5t-189 182q-84 4 -130 -59
t-68.5 -161.5t-28 -214.5t-5.5 -218zM713 1704l-76 -74l-184 176l-183 -176l-69 74l252 250z" />
    <glyph glyph-name="Otilde" unicode="&#xd5;" horiz-adv-x="913" 
d="M761 1341q75 -224 75 -569q0 -467 -107.5 -629.5t-271.5 -162.5q-227 0 -303 220t-76 574q0 355 77.5 573t304.5 218q226 0 301 -224zM225 772q0 -102 5.5 -217t28 -212t68.5 -160.5t129 -63.5t130 63.5t69.5 160.5t27.5 212t5 310.5t-42 377.5t-189 182q-84 4 -130 -59
t-68.5 -161.5t-28 -214.5t-5.5 -218zM462.5 1835q70.5 -37 93.5 -37q24 0 37 20.5t11 43.5h121q-5 -59 -47 -112.5t-111 -53.5q-43 0 -114 39t-99 39q-45 0 -45 -68h-119q4 65 50.5 115.5t98.5 50.5q53 0 123.5 -37z" />
    <glyph glyph-name="Odieresis" unicode="&#xd6;" horiz-adv-x="913" 
d="M761 1341q75 -224 75 -569q0 -467 -107.5 -629.5t-271.5 -162.5q-227 0 -303 220t-76 574q0 355 77.5 573t304.5 218q226 0 301 -224zM225 772q0 -102 5.5 -217t28 -212t68.5 -160.5t129 -63.5t130 63.5t69.5 160.5t27.5 212t5 310.5t-42 377.5t-189 182q-84 4 -130 -59
t-68.5 -161.5t-28 -214.5t-5.5 -218zM219 1790q0 39 27.5 66.5t66.5 27.5t67 -27.5t28 -66.5t-28 -66.5t-67 -27.5t-66.5 27.5t-27.5 66.5zM506 1790q0 39 27.5 66.5t66.5 27.5t66.5 -27.5t27.5 -66.5t-27.5 -66.5t-66.5 -27.5t-66.5 27.5t-27.5 66.5z" />
    <glyph glyph-name="multiply" unicode="&#xd7;" horiz-adv-x="909" 
d="M119 115l-76 71l338 338l-338 338l76 74l336 -338l338 338l75 -72l-340 -340l340 -340l-75 -73l-338 340z" />
    <glyph glyph-name="Oslash" unicode="&#xd8;" horiz-adv-x="913" 
d="M78 730q0 287 51.5 561t322.5 274q173 0 257 -138l65 138l88 -45l-96 -205q70 -210 70 -543q0 -457 -105 -624.5t-271 -167.5q-165 0 -253 139l-66 -139l-92 45l101 206q-72 212 -72 499zM457 1425q-45 0 -138.5 -35.5t-93.5 -617.5q0 -140 19 -354h4l385 870
q-59 137 -176 137zM688 772q0 94 -16 350h-8l-377 -858q57 -145 174 -145t172 147t55 506z" />
    <glyph glyph-name="Ugrave" unicode="&#xd9;" horiz-adv-x="880" 
d="M764 489q0 -106 -8 -199t-60 -201.5t-256 -108.5q-117 0 -181 40.5t-96 110.5t-39 162t-7 196v1055h143v-1046q0 -213 23.5 -272.5t59.5 -83t123.5 -23.5t121 84.5t33.5 294.5v1046h143v-1055zM518 1692l-65 -62l-267 240l109 98z" />
    <glyph glyph-name="Uacute" unicode="&#xda;" horiz-adv-x="880" 
d="M764 489q0 -106 -8 -199t-60 -201.5t-256 -108.5q-117 0 -181 40.5t-96 110.5t-39 162t-7 196v1055h143v-1046q0 -213 23.5 -272.5t59.5 -83t123.5 -23.5t121 84.5t33.5 294.5v1046h143v-1055zM586 1968l108 -98l-266 -240l-66 62z" />
    <glyph glyph-name="Ucircumflex" unicode="&#xdb;" horiz-adv-x="880" 
d="M764 489q0 -106 -8 -199t-60 -201.5t-256 -108.5q-117 0 -181 40.5t-96 110.5t-39 162t-7 196v1055h143v-1046q0 -213 23.5 -272.5t59.5 -83t123.5 -23.5t121 84.5t33.5 294.5v1046h143v-1055zM696 1704l-75 -74l-185 176l-182 -176l-70 74l252 250z" />
    <glyph glyph-name="Udieresis" unicode="&#xdc;" horiz-adv-x="880" 
d="M764 489q0 -106 -8 -199t-60 -201.5t-256 -108.5q-117 0 -181 40.5t-96 110.5t-39 162t-7 196v1055h143v-1046q0 -213 23.5 -272.5t59.5 -83t123.5 -23.5t121 84.5t33.5 294.5v1046h143v-1055zM489 1790q0 39 28 66.5t67 27.5t66.5 -27.5t27.5 -66.5t-27.5 -66.5
t-66.5 -27.5t-67 27.5t-28 66.5zM203 1790q0 39 27.5 66.5t66.5 27.5t66.5 -27.5t27.5 -66.5t-27.5 -66.5t-66.5 -27.5t-66.5 27.5t-27.5 66.5z" />
    <glyph glyph-name="Yacute" unicode="&#xdd;" horiz-adv-x="802" 
d="M481 0h-143v676l-299 868h154l153 -520q16 -51 29.5 -102.5t30.5 -104.5h8q10 53 19 107.5t26 107.5l151 512h154l-283 -868v-676zM547 1968l108 -98l-266 -240l-65 62z" />
    <glyph glyph-name="Thorn" unicode="&#xde;" horiz-adv-x="743" 
d="M123 0v1544h143v-327q82 0 258 -21.5t176 -380.5q-8 -230 -92.5 -316.5t-304.5 -86.5h-37v-412h-143zM266 543h56q142 0 184.5 56t44.5 176t-10.5 172t-53.5 95t-192 43h-29v-542z" />
    <glyph glyph-name="germandbls" unicode="&#xdf;" horiz-adv-x="753" 
d="M537 1270q0 260 -154 260q-124 0 -130.5 -115t-6.5 -174v-1241h-133v926h-111v125h111v174q0 201 32.5 276.5t88 114.5t143.5 39q158 0 227.5 -98t69.5 -235t-21.5 -193t-51.5 -89.5t-79 -52.5q160 -61 165 -247t5 -258q0 -217 -62 -349.5t-255 -132.5h-29v125h16
q47 0 83 11t73 73t37 314t-33 312t-67.5 74.5t-83.5 16.5h-25v125h14q104 0 140.5 50t36.5 169z" />
    <glyph glyph-name="agrave" unicode="&#xe0;" horiz-adv-x="714" 
d="M325 1067q98 0 160 -88h4v72h134v-1051h-134v82h-4q-63 -98 -174 -98q-63 0 -110 21.5t-93.5 114t-46.5 376.5t31 377.5t83 143.5t150 50zM472.5 849.5q-29.5 108.5 -118.5 108.5q-141 0 -148 -172t-7 -288t12 -206.5t32.5 -134.5t48 -54.5t66.5 -10.5t69 23.5t52.5 100
t22.5 301.5q0 224 -29.5 332.5zM477 1260l-65 -62l-267 240l109 98z" />
    <glyph glyph-name="aacute" unicode="&#xe1;" horiz-adv-x="714" 
d="M325 1067q98 0 160 -88h4v72h134v-1051h-134v82h-4q-63 -98 -174 -98q-63 0 -110 21.5t-93.5 114t-46.5 376.5t31 377.5t83 143.5t150 50zM472.5 849.5q-29.5 108.5 -118.5 108.5q-141 0 -148 -172t-7 -288t12 -206.5t32.5 -134.5t48 -54.5t66.5 -10.5t69 23.5t52.5 100
t22.5 301.5q0 224 -29.5 332.5zM483 1536l109 -98l-266 -240l-66 62z" />
    <glyph glyph-name="acircumflex" unicode="&#xe2;" horiz-adv-x="714" 
d="M325 1067q98 0 160 -88h4v72h134v-1051h-134v82h-4q-63 -98 -174 -98q-63 0 -110 21.5t-93.5 114t-46.5 376.5t31 377.5t83 143.5t150 50zM472.5 849.5q-29.5 108.5 -118.5 108.5q-141 0 -148 -172t-7 -288t12 -206.5t32.5 -134.5t48 -54.5t66.5 -10.5t69 23.5t52.5 100
t22.5 301.5q0 224 -29.5 332.5zM614 1272l-75 -74l-185 176l-182 -176l-70 74l252 250z" />
    <glyph glyph-name="atilde" unicode="&#xe3;" horiz-adv-x="714" 
d="M325 1067q98 0 160 -88h4v72h134v-1051h-134v82h-4q-63 -98 -174 -98q-63 0 -110 21.5t-93.5 114t-46.5 376.5t31 377.5t83 143.5t150 50zM472.5 849.5q-29.5 108.5 -118.5 108.5q-141 0 -148 -172t-7 -288t12 -206.5t32.5 -134.5t48 -54.5t66.5 -10.5t69 23.5t52.5 100
t22.5 301.5q0 224 -29.5 332.5zM364.5 1403q70.5 -37 93.5 -37q24 0 37 20.5t11 43.5h121q-5 -59 -47 -112.5t-111 -53.5q-42 0 -113 38q-72 38 -100 39q-45 0 -45 -67h-119q4 65 50.5 115.5t98.5 50.5q53 0 123.5 -37z" />
    <glyph glyph-name="adieresis" unicode="&#xe4;" horiz-adv-x="714" 
d="M325 1067q98 0 160 -88h4v72h134v-1051h-134v82h-4q-63 -98 -174 -98q-63 0 -110 21.5t-93.5 114t-46.5 376.5t31 377.5t83 143.5t150 50zM472.5 849.5q-29.5 108.5 -118.5 108.5q-141 0 -148 -172t-7 -288t12 -206.5t32.5 -134.5t48 -54.5t66.5 -10.5t69 23.5t52.5 100
t22.5 301.5q0 224 -29.5 332.5zM121 1358q0 39 27.5 66.5t66.5 27.5t66.5 -27.5t27.5 -66.5t-27.5 -66.5t-66.5 -27.5t-66.5 27.5t-27.5 66.5zM408 1358q0 39 27.5 66.5t66.5 27.5t66.5 -27.5t27.5 -66.5t-27.5 -66.5t-66.5 -27.5t-66.5 27.5t-27.5 66.5z" />
    <glyph glyph-name="aring" unicode="&#xe5;" horiz-adv-x="714" 
d="M325 1067q98 0 160 -88h4v72h134v-1051h-134v82h-4q-63 -98 -174 -98q-63 0 -110 21.5t-93.5 114t-46.5 376.5t31 377.5t83 143.5t150 50zM472.5 849.5q-29.5 108.5 -118.5 108.5q-141 0 -148 -172t-7 -288t12 -206.5t32.5 -134.5t48 -54.5t66.5 -10.5t69 23.5t52.5 100
t22.5 301.5q0 224 -29.5 332.5zM360.5 1575q77.5 0 131 -53.5t53.5 -131t-53.5 -132t-131 -54.5t-132 54.5t-54.5 132t54.5 131t132 53.5zM360.5 1483q-38.5 0 -66.5 -26.5t-28 -65.5t28 -67t66.5 -28t65.5 28t27 67t-27 65.5t-65.5 26.5z" />
    <glyph glyph-name="ae" unicode="&#xe6;" horiz-adv-x="1159" 
d="M311 1067q204 0 271 -197h4q27 86 85 141.5t146 55.5t184.5 -90.5t96.5 -415.5v-63h-451v-31q0 -221 57.5 -289.5t106.5 -68.5q79 0 106 65t33 152l2 30h138q0 -139 -62 -255.5t-186 -116.5t-176 53t-80 137h-4q-29 -92 -98.5 -141t-150.5 -49t-132 34.5t-82 88
t-44.5 120t-13.5 168.5t64 203.5t198 101.5q133 0 195 -86h4v27q0 134 -30.5 191t-73 83.5t-104.5 26.5t-105 -25.5t-84 -56.5v146q84 61 186 61zM349 109q48 0 82 20.5t54.5 53t29.5 73.5t9 111t-39 147.5t-131 77.5t-126.5 -71t-34.5 -140.5t6 -112.5t23.5 -77.5t48 -58
t78.5 -23.5zM963 629q0 313 -119.5 313t-157 -111t-37.5 -221h314v19z" />
    <glyph glyph-name="ccedilla" unicode="&#xe7;" horiz-adv-x="569" 
d="M258.5 193.5q59.5 -84.5 113.5 -84.5t84.5 29.5t53.5 64.5h4v-166q-61 -53 -152 -53q-159 0 -230 168t-71 352q0 426 120 494.5t194 68.5t139 -41v-154q-65 70 -129 70t-125 -80t-61 -332t59.5 -336.5zM219 -453l-84 47l170 322l109 -59z" />
    <glyph glyph-name="egrave" unicode="&#xe8;" horiz-adv-x="702" 
d="M375 -16q-314 0 -314 538q0 406 115.5 475.5t193.5 69.5t174.5 -90.5t96.5 -415.5v-63h-442v-31q0 -219 54 -288.5t103 -69.5q140 0 140 247h137q0 -139 -62 -255.5t-196 -116.5zM237.5 832q-36.5 -110 -36.5 -222h305q-2 18 -6 91t-29 157t-111 84t-122.5 -110z
M471 1260l-65 -62l-267 240l109 98z" />
    <glyph glyph-name="eacute" unicode="&#xe9;" horiz-adv-x="702" 
d="M375 -16q-314 0 -314 538q0 406 115.5 475.5t193.5 69.5t174.5 -90.5t96.5 -415.5v-63h-442v-31q0 -219 54 -288.5t103 -69.5q140 0 140 247h137q0 -139 -62 -255.5t-196 -116.5zM237.5 832q-36.5 -110 -36.5 -222h305q-2 18 -6 91t-29 157t-111 84t-122.5 -110z
M477 1536l109 -98l-267 -240l-65 62z" />
    <glyph glyph-name="ecircumflex" unicode="&#xea;" horiz-adv-x="702" 
d="M375 -16q-314 0 -314 538q0 406 115.5 475.5t193.5 69.5t174.5 -90.5t96.5 -415.5v-63h-442v-31q0 -219 54 -288.5t103 -69.5q140 0 140 247h137q0 -139 -62 -255.5t-196 -116.5zM237.5 832q-36.5 -110 -36.5 -222h305q-2 18 -6 91t-29 157t-111 84t-122.5 -110z
M608 1272l-76 -74l-184 176l-182 -176l-70 74l252 250z" />
    <glyph glyph-name="edieresis" unicode="&#xeb;" horiz-adv-x="702" 
d="M375 -16q-314 0 -314 538q0 406 115.5 475.5t193.5 69.5t174.5 -90.5t96.5 -415.5v-63h-442v-31q0 -219 54 -288.5t103 -69.5q140 0 140 247h137q0 -139 -62 -255.5t-196 -116.5zM237.5 832q-36.5 -110 -36.5 -222h305q-2 18 -6 91t-29 157t-111 84t-122.5 -110z
M115 1358q0 39 27.5 66.5t66.5 27.5t66.5 -27.5t27.5 -66.5t-27.5 -66.5t-66.5 -27.5t-66.5 27.5t-27.5 66.5zM401 1358q0 39 28 66.5t67 27.5t66.5 -27.5t27.5 -66.5t-27.5 -66.5t-66.5 -27.5t-67 27.5t-28 66.5z" />
    <glyph glyph-name="igrave" unicode="&#xec;" horiz-adv-x="317" 
d="M225 0h-133v1051h133v-1051zM299 1260l-66 -62l-266 240l109 98z" />
    <glyph glyph-name="iacute" unicode="&#xed;" horiz-adv-x="317" 
d="M225 0h-133v1051h133v-1051zM244 1536l108 -98l-266 -240l-66 62z" />
    <glyph glyph-name="icircumflex" unicode="&#xee;" horiz-adv-x="317" 
d="M225 0h-133v1051h133v-1051zM416 1272l-76 -74l-184 176l-183 -176l-69 74l252 250z" />
    <glyph glyph-name="idieresis" unicode="&#xef;" horiz-adv-x="317" 
d="M225 0h-133v1051h133v-1051zM209 1358q0 39 27.5 66.5t66.5 27.5t66.5 -27.5t27.5 -66.5t-27.5 -66.5t-66.5 -27.5t-66.5 27.5t-27.5 66.5zM-78 1358q0 39 27.5 66.5t66.5 27.5t67 -27.5t28 -66.5t-28 -66.5t-67 -27.5t-66.5 27.5t-27.5 66.5z" />
    <glyph glyph-name="eth" unicode="&#xf0;" horiz-adv-x="724" 
d="M264 -16q-203 0 -203 542q0 321 103.5 422t200.5 101q37 0 88 -23q-59 137 -127 242l-138 -84l-57 82l141 86q-73 112 -202 241l106 43q121 -112 199 -221l141 86l57 -80l-143 -88q242 -372 234 -807q-12 -233 -46 -331.5t-92.5 -154.5t-261.5 -56zM366 950
q-56 0 -88 -42t-55.5 -127.5t-23.5 -202.5q0 -223 35 -346t128 -123q126 0 147 199t16 320.5t-21.5 182.5t-49 100t-88.5 39z" />
    <glyph glyph-name="ntilde" unicode="&#xf1;" horiz-adv-x="727" 
d="M432 1067q180 0 191.5 -131t11.5 -184v-752h-133v737q0 113 -22.5 167t-88.5 54q-109 0 -137.5 -77.5t-28.5 -198.5v-682h-133v1051h133v-84q87 100 207 100zM370.5 1403q70.5 -37 93.5 -37q24 0 37 20.5t11 43.5h121q-5 -59 -47 -112.5t-111 -53.5q-42 0 -113 38
q-72 38 -100 39q-45 0 -45 -67h-119q4 65 50.5 115.5t98.5 50.5q53 0 123.5 -37z" />
    <glyph glyph-name="ograve" unicode="&#xf2;" horiz-adv-x="727" 
d="M362.5 1067q104.5 0 164 -57.5t90 -140.5t39 -176t8.5 -166.5t-8.5 -168t-39 -177.5t-90 -140t-164 -57t-164 57t-90 140t-39 177.5t-8.5 168t8.5 166.5t39 176t90 140.5t164 57.5zM362.5 110q163.5 0 163.5 416t-163.5 416t-163.5 -416t163.5 -416zM463 1260l-66 -62
l-266 240l109 98z" />
    <glyph glyph-name="oacute" unicode="&#xf3;" horiz-adv-x="727" 
d="M362.5 1067q104.5 0 164 -57.5t90 -140.5t39 -176t8.5 -166.5t-8.5 -168t-39 -177.5t-90 -140t-164 -57t-164 57t-90 140t-39 177.5t-8.5 168t8.5 166.5t39 176t90 140.5t164 57.5zM362.5 110q163.5 0 163.5 416t-163.5 416t-163.5 -416t163.5 -416zM489 1536l109 -98
l-266 -240l-66 62z" />
    <glyph glyph-name="ocircumflex" unicode="&#xf4;" horiz-adv-x="727" 
d="M362.5 1067q104.5 0 164 -57.5t90 -140.5t39 -176t8.5 -166.5t-8.5 -168t-39 -177.5t-90 -140t-164 -57t-164 57t-90 140t-39 177.5t-8.5 168t8.5 166.5t39 176t90 140.5t164 57.5zM362.5 110q163.5 0 163.5 416t-163.5 416t-163.5 -416t163.5 -416zM621 1272l-76 -74
l-185 176l-182 -176l-69 74l251 250z" />
    <glyph glyph-name="otilde" unicode="&#xf5;" horiz-adv-x="727" 
d="M362.5 1067q104.5 0 164 -57.5t90 -140.5t39 -176t8.5 -166.5t-8.5 -168t-39 -177.5t-90 -140t-164 -57t-164 57t-90 140t-39 177.5t-8.5 168t8.5 166.5t39 176t90 140.5t164 57.5zM362.5 110q163.5 0 163.5 416t-163.5 416t-163.5 -416t163.5 -416zM370.5 1403
q70.5 -37 93.5 -37q24 0 37 20.5t11 43.5h121q-5 -59 -47 -112.5t-111 -53.5q-42 0 -113 38q-72 38 -100 39q-45 0 -45 -67h-119q4 65 50.5 115.5t98.5 50.5q53 0 123.5 -37z" />
    <glyph glyph-name="odieresis" unicode="&#xf6;" horiz-adv-x="727" 
d="M362.5 1067q104.5 0 164 -57.5t90 -140.5t39 -176t8.5 -166.5t-8.5 -168t-39 -177.5t-90 -140t-164 -57t-164 57t-90 140t-39 177.5t-8.5 168t8.5 166.5t39 176t90 140.5t164 57.5zM362.5 110q163.5 0 163.5 416t-163.5 416t-163.5 -416t163.5 -416zM127 1358
q0 39 27.5 66.5t66.5 27.5t66.5 -27.5t27.5 -66.5t-27.5 -66.5t-66.5 -27.5t-66.5 27.5t-27.5 66.5zM414 1358q0 39 27.5 66.5t66.5 27.5t66.5 -27.5t27.5 -66.5t-27.5 -66.5t-66.5 -27.5t-66.5 27.5t-27.5 66.5z" />
    <glyph glyph-name="divide" unicode="&#xf7;" horiz-adv-x="909" 
d="M868 578v-105h-825v105h825zM457 231q43 0 73.5 -30.5t30.5 -73.5t-30.5 -73.5t-73.5 -30.5t-74 30.5t-31 73.5t31 73.5t74 30.5zM457 1028q43 0 73.5 -30.5t30.5 -73.5t-30.5 -74t-73.5 -31t-74 31t-31 74t31 73.5t74 30.5z" />
    <glyph glyph-name="oslash" unicode="&#xf8;" horiz-adv-x="727" 
d="M61 524q0 356 103.5 449.5t214.5 93.5t186 -100l60 100l71 -45l-82 -143q50 -135 50 -351t-37 -324t-96.5 -164t-159.5 -56q-133 0 -213 104l-56 -96l-73 43l84 145q-52 151 -52 344zM526 530q0 44 -12 185h-4l-270 -504q16 -41 49 -71.5t85 -30.5t83.5 50t47 118.5
t18.5 138.5t3 114zM199 524q0 -74 10 -192h4l270 512q-12 37 -42.5 67.5t-136 30.5t-105.5 -418z" />
    <glyph glyph-name="ugrave" unicode="&#xf9;" horiz-adv-x="716" 
d="M217 1051v-660q0 -138 17.5 -186.5t45 -72t77.5 -23.5q92 0 117.5 75.5t25.5 206.5v660h133v-772q0 -133 -66.5 -214t-208 -81t-208 79.5t-66.5 215.5v772h133zM457 1260l-66 -62l-266 240l108 98z" />
    <glyph glyph-name="uacute" unicode="&#xfa;" horiz-adv-x="716" 
d="M217 1051v-660q0 -138 17.5 -186.5t45 -72t77.5 -23.5q92 0 117.5 75.5t25.5 206.5v660h133v-772q0 -133 -66.5 -214t-208 -81t-208 79.5t-66.5 215.5v772h133zM483 1536l109 -98l-266 -240l-66 62z" />
    <glyph glyph-name="ucircumflex" unicode="&#xfb;" horiz-adv-x="716" 
d="M217 1051v-660q0 -138 17.5 -186.5t45 -72t77.5 -23.5q92 0 117.5 75.5t25.5 206.5v660h133v-772q0 -133 -66.5 -214t-208 -81t-208 79.5t-66.5 215.5v772h133zM614 1272l-75 -74l-185 176l-182 -176l-70 74l252 250z" />
    <glyph glyph-name="udieresis" unicode="&#xfc;" horiz-adv-x="716" 
d="M217 1051v-660q0 -138 17.5 -186.5t45 -72t77.5 -23.5q92 0 117.5 75.5t25.5 206.5v660h133v-772q0 -133 -66.5 -214t-208 -81t-208 79.5t-66.5 215.5v772h133zM408 1358q0 39 27.5 66.5t66.5 27.5t66.5 -27.5t27.5 -66.5t-27.5 -66.5t-66.5 -27.5t-66.5 27.5t-27.5 66.5
zM121 1358q0 39 27.5 66.5t66.5 27.5t66.5 -27.5t27.5 -66.5t-27.5 -66.5t-66.5 -27.5t-66.5 27.5t-27.5 66.5z" />
    <glyph glyph-name="yacute" unicode="&#xfd;" horiz-adv-x="679" 
d="M301 -401h-139l104 430l-250 1022h136l176 -848h6q14 68 26.5 135.5t28.5 134.5l135 578h140zM485 1536l109 -98l-266 -240l-66 62z" />
    <glyph glyph-name="thorn" unicode="&#xfe;" horiz-adv-x="714" 
d="M225 82v-483h-133v1876h133v-496h4q63 88 159 88q169 0 217 -141.5t48 -326.5t-8 -287.5t-49 -215t-193 -112.5q-111 0 -174 98h-4zM487.5 195q28.5 103 28.5 317t-18.5 288t-49 116t-86.5 42t-85 -37.5t-46.5 -109.5t-17.5 -206t3 -217t28 -189.5t120 -106.5t123.5 103z
" />
    <glyph glyph-name="ydieresis" unicode="&#xff;" horiz-adv-x="679" 
d="M301 -401h-139l104 430l-250 1022h136l176 -848h6q14 68 26.5 135.5t28.5 134.5l135 578h140zM389 1358q0 39 27.5 66.5t66.5 27.5t67 -27.5t28 -66.5t-28 -66.5t-67 -27.5t-66.5 27.5t-27.5 66.5zM102 1358q0 39 28 66.5t67 27.5t66.5 -27.5t27.5 -66.5t-27.5 -66.5
t-66.5 -27.5t-67 27.5t-28 66.5z" />
    <glyph glyph-name="dotlessi" unicode="&#x131;" horiz-adv-x="317" 
d="M225 0h-133v1051h133v-1051z" />
    <glyph glyph-name="Lslash" unicode="&#x141;" horiz-adv-x="602" 
d="M123 1544h143v-655l185 125v-123l-185 -127v-633h336v-131h-479v666l-111 -76v127l111 76v751z" />
    <glyph glyph-name="lslash" unicode="&#x142;" horiz-adv-x="317" 
d="M92 1638h133v-583l117 88v-107l-117 -90v-946h-133v842l-117 -90v110l117 90v686z" />
    <glyph glyph-name="OE" unicode="&#x152;" horiz-adv-x="1255" 
d="M813 868h332v-131h-332v-606h342v-131h-477v160h-4q-29 -78 -91.5 -129t-148.5 -51t-146.5 44t-114 136.5t-74.5 263.5t-21 298t3 208.5t43 358t320 276.5q76 0 136.5 -46t93.5 -112h4v137h477v-131h-342v-545zM225 721q0 -279 49 -440.5t175 -161.5q72 0 115.5 32.5
t76.5 132t33 463.5q0 363 -41 520.5t-187 157.5q-185 0 -203 -290.5t-18 -413.5z" />
    <glyph glyph-name="oe" unicode="&#x153;" horiz-adv-x="1146" 
d="M637 498v-31q0 -223 56.5 -290.5t105.5 -67.5q79 0 106 65t33 152l2 30h137q0 -142 -62 -257t-196 -115q-92 0 -156.5 59t-89.5 162h-4q-17 -91 -74.5 -156t-139.5 -65q-151 0 -222.5 146.5t-71.5 365.5q0 434 114 502.5t167 68.5q95 0 154.5 -68t72.5 -153h4
q16 88 80.5 154.5t151.5 66.5q88 0 184 -90t96 -416v-63h-448zM230 257q31 -141 126 -148q90 0 124 140.5t34 227.5q0 465 -158 465q-55 4 -85.5 -43t-51 -131t-20.5 -227t31 -284zM677 833q-38 -109 -38 -223h311q-2 18 -6 91t-29 157t-112 84q-88 0 -126 -109z" />
    <glyph glyph-name="Scaron" unicode="&#x160;" horiz-adv-x="796" 
d="M659 1300q-111 125 -217 125q-114 0 -173.5 -72.5t-59.5 -158.5t22.5 -137t65.5 -99t134 -110t197.5 -144.5t106.5 -272.5t-106 -320.5t-281 -130.5q-143 0 -244 77v187q116 -125 239 -125t184 80.5t61 170.5q0 89 -22.5 139t-59.5 91t-84 74.5t-96 67.5
q-125 85 -195 174t-70 246t96.5 280t258.5 123q127 0 243 -82v-183zM395 1630l-252 250l70 74l182 -176l185 176l75 -74z" />
    <glyph glyph-name="scaron" unicode="&#x161;" horiz-adv-x="569" 
d="M297 1067q107 0 197 -68v-163h-5q-75 106 -174 106q-59 0 -95 -40t-36 -88t14.5 -80t39 -59.5t55.5 -52t63 -51.5q87 -75 127.5 -134.5t40.5 -137.5q0 -140 -78 -227.5t-192 -87.5t-207 71v156q39 -41 83 -71.5t108 -30.5t106.5 47t42.5 99q0 84 -40 134t-100 103
q-107 94 -153.5 158t-46.5 166t71.5 176.5t178.5 74.5zM301 1198l-252 250l70 74l182 -176l184 176l76 -74z" />
    <glyph glyph-name="Ydieresis" unicode="&#x178;" horiz-adv-x="802" 
d="M481 0h-143v676l-299 868h154l153 -520q16 -51 29.5 -102.5t30.5 -104.5h8q10 53 19 107.5t26 107.5l151 512h154l-283 -868v-676zM463 1790q0 39 27.5 66.5t66.5 27.5t66.5 -27.5t27.5 -66.5t-27.5 -66.5t-66.5 -27.5t-66.5 27.5t-27.5 66.5zM176 1790q0 39 27.5 66.5
t66.5 27.5t67 -27.5t28 -66.5t-28 -66.5t-67 -27.5t-66.5 27.5t-27.5 66.5z" />
    <glyph glyph-name="Zcaron" unicode="&#x17d;" horiz-adv-x="686" 
d="M604 131v-131h-565l428 1413h-387v131h567l-432 -1413h389zM356 1630l-252 250l70 74l182 -176l185 176l75 -74z" />
    <glyph glyph-name="zcaron" unicode="&#x17e;" horiz-adv-x="677" 
d="M578 0h-547l415 928h-358v123h559l-426 -928h357v-123zM356 1198l-252 250l70 74l182 -176l185 176l75 -74z" />
    <glyph glyph-name="florin" unicode="&#x192;" 
d="M117 -207q45 0 70.5 43t39.5 121l183 1040h-125l18 107h127l55 323q20 135 71 214t146 79t148 -22l-25 -142q-23 18 -41 29.5t-59 11.5t-64.5 -43t-37.5 -120l-58 -330h180l-18 -107h-180l-182 -1034q-26 -141 -74 -217t-154 -76q-61 0 -137 23l25 141q47 -41 92 -41z
" />
    <glyph glyph-name="circumflex" unicode="&#x2c6;" horiz-adv-x="573" 
d="M543 1272l-76 -74l-184 176l-183 -176l-69 74l252 250z" />
    <glyph glyph-name="caron" unicode="&#x2c7;" horiz-adv-x="573" 
d="M283 1198l-252 250l69 74l183 -176l184 176l76 -74z" />
    <glyph glyph-name="breve" unicode="&#x2d8;" horiz-adv-x="573" 
d="M103.5 1268.5q-82.5 54.5 -93.5 161.5h105q27 -103 149.5 -103t156.5 36t42 67h102q-8 -105 -90.5 -160.5t-185.5 -55.5t-185.5 54.5z" />
    <glyph glyph-name="dotaccent" unicode="&#x2d9;" horiz-adv-x="573" 
d="M193 1358q0 39 27.5 66.5t66.5 27.5t66.5 -27.5t27.5 -66.5t-27.5 -66.5t-66.5 -27.5t-66.5 27.5t-27.5 66.5z" />
    <glyph glyph-name="ring" unicode="&#x2da;" horiz-adv-x="573" 
d="M289 1575q78 0 131 -53.5t53 -131t-53 -132t-131 -54.5t-132.5 54.5t-54.5 132t54.5 131t132.5 53.5zM289 1483q-39 0 -66.5 -26.5t-27.5 -65.5t27.5 -67t66.5 -28t65.5 28t26.5 67t-26.5 65.5t-65.5 26.5z" />
    <glyph glyph-name="ogonek" unicode="&#x2db;" horiz-adv-x="573" 
d="M346 -240q38 0 90 19v-111q-48 -20 -114 -20t-122.5 38t-56.5 108t35 118.5t76 87.5h104q-33 -29 -66.5 -76t-33.5 -92q0 -72 88 -72z" />
    <glyph glyph-name="tilde" unicode="&#x2dc;" horiz-adv-x="573" 
d="M292.5 1403q70.5 -37 93.5 -37q24 0 37 20.5t11 43.5h121q-5 -58 -46.5 -112t-111.5 -54q-43 0 -113 38t-99 39q-46 0 -46 -67h-119q4 65 50.5 115.5t98.5 50.5q53 0 123.5 -37z" />
    <glyph glyph-name="hungarumlaut" unicode="&#x2dd;" horiz-adv-x="573" 
d="M291 1470l-162 -272l-86 31l117 291zM530 1470l-163 -272l-84 31l116 291z" />
    <glyph glyph-name="endash" unicode="&#x2013;" horiz-adv-x="1024" 
d="M0 735h1024v-162h-1024v162z" />
    <glyph glyph-name="emdash" unicode="&#x2014;" horiz-adv-x="2048" 
d="M266 735h1516v-162h-1516v162z" />
    <glyph glyph-name="quoteleft" unicode="&#x2018;" horiz-adv-x="458" 
d="M221 1040l-143 68l205 457l98 -47z" />
    <glyph glyph-name="quoteright" unicode="&#x2019;" horiz-adv-x="458" 
d="M176 1040l-98 47l160 478l143 -68z" />
    <glyph glyph-name="quotesinglbase" unicode="&#x201a;" horiz-adv-x="458" 
d="M115 -330l-99 47l160 478l143 -68z" />
    <glyph glyph-name="quotedblleft" unicode="&#x201c;" horiz-adv-x="733" 
d="M555 1565l100 -47l-159 -478l-146 68zM283 1565l98 -47l-160 -478l-143 68z" />
    <glyph glyph-name="quotedblright" unicode="&#x201d;" horiz-adv-x="733" 
d="M78 1087l160 478l143 -68l-205 -457zM352 1087l160 478l143 -68l-204 -457z" />
    <glyph glyph-name="quotedblbase" unicode="&#x201e;" horiz-adv-x="733" 
d="M176 -330l-98 47l160 478l143 -68zM451 -330l-99 47l160 478l143 -68z" />
    <glyph glyph-name="dagger" unicode="&#x2020;" horiz-adv-x="849" 
d="M362 1016h-245v125h245v403h125v-403h246v-125h-246v-1297h-125v1297z" />
    <glyph glyph-name="daggerdbl" unicode="&#x2021;" horiz-adv-x="849" 
d="M117 954v125h245v465h125v-465h246v-125h-246v-557h246v-125h-246v-553h-125v553h-245v125h245v557h-245z" />
    <glyph glyph-name="bullet" unicode="&#x2022;" horiz-adv-x="849" 
d="M697.5 1045.5q113.5 -113.5 113.5 -270t-113.5 -271.5t-271.5 -115t-271.5 115t-113.5 271.5t113.5 270t271.5 113.5t271.5 -113.5z" />
    <glyph glyph-name="ellipsis" unicode="&#x2026;" horiz-adv-x="2048" 
d="M340 193q43 0 73.5 -31t30.5 -74t-30.5 -73.5t-73.5 -30.5t-73.5 30.5t-30.5 73.5t30.5 74t73.5 31zM1708 193q43 0 73.5 -31t30.5 -74t-30.5 -73.5t-73.5 -30.5t-73.5 30.5t-30.5 73.5t30.5 74t73.5 31zM1024 193q43 0 73.5 -31t30.5 -74t-30.5 -73.5t-73.5 -30.5
t-73.5 30.5t-30.5 73.5t30.5 74t73.5 31z" />
    <glyph glyph-name="perthousand" unicode="&#x2030;" horiz-adv-x="1554" 
d="M829.5 770q69.5 0 107.5 -41t56.5 -101.5t21.5 -129t3 -124t-3 -124t-21.5 -129t-56.5 -101t-107.5 -40.5t-107.5 40.5t-56.5 101t-21.5 129t-3 124t3 124t21.5 129t56.5 101.5t107.5 41zM1314.5 770q69.5 0 107.5 -41t56.5 -101.5t21.5 -129t3 -124t-3 -124t-21.5 -129
t-56.5 -101t-107.5 -40.5t-107.5 40.5t-56 101t-21.5 129t-3.5 124t3.5 124t21.5 129t56 101.5t107.5 41zM239.5 774q-69.5 0 -107.5 41t-56.5 101.5t-21.5 129t-3 124t3 124t21.5 129t56.5 101.5t107.5 41t107.5 -41t56.5 -101.5t21.5 -129t3 -124t-3 -124t-21.5 -129
t-56.5 -101.5t-107.5 -41zM1315 692q-37 0 -57.5 -31.5t-30.5 -80t-12.5 -103.5t-2.5 -102t2.5 -102.5t12.5 -103.5t30.5 -80t57.5 -32t57.5 32t30.5 80t12 103.5t2 102.5t-2 102t-12 103.5t-30.5 80t-57.5 31.5zM239.5 1487q-36.5 0 -57 -32t-31 -80t-12.5 -103t-2 -102.5
t2 -102.5t12.5 -103.5t31 -80t57 -31.5t57 31.5t31 80t12.5 103.5t2 102.5t-2 102.5t-12.5 103t-31 80t-57 32zM829.5 692q-36.5 0 -57 -31.5t-31 -80t-12.5 -103.5t-2 -102t2 -102.5t12.5 -103.5t31 -80t57 -32t57 32t31 80t12.5 103.5t2 102.5t-2 102t-12.5 103.5t-31 80
t-57 31.5zM233 0h-69l672 1544h65z" />
    <glyph glyph-name="guilsinglleft" unicode="&#x2039;" horiz-adv-x="509" 
d="M92 647l252 449l88 -52l-219 -397l219 -387l-88 -49z" />
    <glyph glyph-name="guilsinglright" unicode="&#x203a;" horiz-adv-x="509" 
d="M418 659l-252 -448l-88 51l219 397l-219 388l88 49z" />
    <glyph glyph-name="fraction" unicode="&#x2044;" horiz-adv-x="249" 
d="M-166 0h-86l670 1544h84z" />
    <glyph glyph-name="fraction" unicode="&#x2215;" horiz-adv-x="249" 
d="M-166 0h-86l670 1544h84z" />
    <glyph glyph-name="Euro" unicode="&#x20ac;" 
d="M274 594q36 -483 328 -483q102 0 209 57v-139q-96 -49 -217 -49t-278 103.5t-181 510.5h-102l14 88h84v156h-100l14 88h92q33 430 188.5 534.5t291.5 104.5t214 -47l-20 -140q-105 56 -199 56q-172 0 -246.5 -139.5t-91.5 -366.5h471l-14 -88h-461v-158h439l-15 -88h-420
z" />
    <glyph glyph-name="trademark" unicode="&#x2122;" horiz-adv-x="1478" 
d="M1364 682h-104v754h-5l-192 -754h-74l-190 754h-4v-754h-105v862h180l154 -608h4l160 608h176v-862zM598 1440h-188v-758h-105v758h-188v104h481v-104z" />
    <glyph glyph-name="minus" unicode="&#x2212;" horiz-adv-x="909" 
d="M868 473h-825v105h825v-105z" />
    <glyph glyph-name="fi" unicode="&#xfb01;" horiz-adv-x="743" 
d="M309 1655q66 0 117 -23v-145q-23 16 -45.5 30.5t-50.5 14.5q-55 0 -69.5 -46t-14.5 -122v-313h174v-123h-174v-928h-133v928h-113v123h113v311q0 139 42 216t154 77zM651 0h-133v1051h133v-1051zM684 1362q0 -41 -28.5 -70.5t-69.5 -29.5t-71 29.5t-30 70.5t30 69.5
t71 28.5t69.5 -28.5t28.5 -69.5z" />
    <glyph glyph-name="fl" unicode="&#xfb02;" horiz-adv-x="743" 
d="M295 1655q80 0 131 -23v-145q-23 16 -45.5 30.5t-50.5 14.5q-59 0 -71.5 -45t-12.5 -125v-311h174v-123h-174v-928h-133v928h-113v123h113v309q0 160 51 227.5t131 67.5zM651 0h-133v1638h133v-1638z" />
    <glyph glyph-name="nonbreakingspace" horiz-adv-x="425" 
 />
    </font>
</defs>
</svg>
